<?xml version="1.0" encoding="utf-8"?>
<!-- Generator: Adobe Illustrator 16.0.0, SVG Export Plug-In . SVG Version: 6.00 Build 0)  -->
<!DOCTYPE svg PUBLIC "-//W3C//DTD SVG 1.1//EN" "http://www.w3.org/Graphics/SVG/1.1/DTD/svg11.dtd">
<svg version="1.1" xmlns="http://www.w3.org/2000/svg" xmlns:xlink="http://www.w3.org/1999/xlink" x="0px" y="0px"
	 width="1829.418px" height="1584px" viewBox="0 0 1829.418 1584" enable-background="new 0 0 1829.418 1584" xml:space="preserve">
<g id="Layer_1">
	<polygon fill="#d1d2d5" fill-opacity="1.0" stroke-miterlimit="10" points="457.644,1583.5 0.578,792 457.644,0.5 1371.776,0.5 
		1828.841,792 1371.775,1583.5 	"/>
	<path stroke="#47566D" stroke-miterlimit="10" d="M486.035,1511.5"/>
	<path stroke="#47566D" stroke-miterlimit="10" d="M966.035,1511.5"/>
	<path stroke="#47566D" stroke-miterlimit="10" d="M966.035,1511.5"/>
	<path stroke="#47566D" stroke-miterlimit="10" d="M1318.035,1511.5"/>
	<path stroke="#47566D" stroke-miterlimit="10" d="M1318.035,69.5"/>
	<path stroke="#47566D" stroke-miterlimit="10" d="M486.035,69.5"/>
	<path stroke="#487DAF" stroke-miterlimit="10" d="M226.601,807.394"/>
	<path stroke="#487DAF" stroke-miterlimit="10" d="M642.762,86.644"/>
</g>
<g id="Layer_3" display="none">
	<g display="inline">
		<defs>
			<polygon id="SVGID_1_" points="457.644,1581 0.578,789.5 457.644,-2 1371.776,-2 1828.841,789.5 1371.775,1581 			"/>
		</defs>
		<clipPath id="SVGID_2_">
			<use xlink:href="#SVGID_1_"  overflow="visible"/>
		</clipPath>
		<g clip-path="url(#SVGID_2_)">
			<path fill="#0DB89A" d="M987.869,778.269c325.737-383.743,482.46-823.281,487.669-840.91
				c14.018-38.705,13.629-63.623,2.747-58.27c-5.441,2.677-14.408,13.784-23.294,29.874c-8.888,16.091-16.856,32.568-22.983,49.812
				c0,0-1.763,4.214-4.365,13.028l-229.956-96.126c3.523-8.43,6.204-12.261,6.204-12.261c17.698-37.165,28.957-77.021,24.202-88.913
				c-4.754-11.889-21.843,5.724-39.54,42.891c-8.887,16.091-212.521,436.02-255.873,937.804
				c-350.794,417.832-515.861,908.351-522.83,930.193c-11.335,34.87-10.948,59.794,1.697,50.223
				c13.563-9.182,33.1-45.578,46.199-84.668c0,0,1.763-4.218,2.604-8.812l227.196,94.971c-1.76,4.216-3.522,8.431-4.442,8.047
				c-7.967,16.473-16.779,37.551-21.986,55.18c-5.206,17.625-7.733,31.426-5.815,37.178c0.077,4.985,1.916,5.754,2.836,6.138
				c6.438,2.691,19.005-11.86,34.099-40.213C703.804,1783.513,936.937,1321.451,987.869,778.269z M1323.375,200.553l-215.238-89.975
				c9.574-30.659,21.83-65.148,32.323-95.421l227.196,94.973C1354.405,139.25,1338.467,172.201,1323.375,200.553z M1248.675,332.723
				c-16.934,27.583-33.864,55.165-53.48,86.577l-152.69-63.829c6.813-31.81,13.629-63.623,24.046-98.88L1248.675,332.723z
				 M1106.697,545.705c-36.703,49.026-73.483,93.071-111.183,136.728c3.666-57.885,9.172-115.001,19.199-175.178L1106.697,545.705z
				 M888.992,1118.2l-128.775-53.83c52.715-76.991,110.031-152.066,166.582-217.553
				C919.075,937.669,907.673,1026.983,888.992,1118.2z M626.516,1280.812c16.013-27.965,33.787-60.145,50.721-87.729l178.446,74.595
				c-7.735,31.427-16.389,62.467-26.805,97.726L626.516,1280.812z M746.688,1603.379l-231.795-96.896
				c13.253-29.119,26.506-58.238,42.441-91.189l224.438,93.819C771.278,1539.385,758.102,1573.487,746.688,1603.379z"/>
		</g>
	</g>
</g>
<g id="Layer_5">
	<g>
		<defs>
			<polygon id="SVGID_3_" points="462.644,1584 5.578,792.5 462.644,1 1376.776,1 1833.841,792.5 1376.775,1584 			"/>
		</defs>
		<clipPath id="SVGID_4_">
			<use xlink:href="#SVGID_3_"  overflow="visible"/>
		</clipPath>
		<g clip-path="url(#SVGID_4_)">
			<g>
				<path fill="#487DAF" stroke="#487DAF" stroke-miterlimit="10" d="M642.928,742.604
					c27.723-221.877,158.243-327.537,304.452-427.862c-8.739-9.819-17.505-19.691-26.252-29.64
					C777.391,385.194,642.115,501.883,612.51,738.805c-29.604,236.921,72.801,383.309,187.489,515.694
					c10.927-7.49,21.853-14.903,32.742-22.268C715.711,1099.003,615.202,964.485,642.928,742.604z"/>
				<path fill="#487DAF" stroke="#487DAF" stroke-miterlimit="10" d="M911.752,1321.592c-10.928,7.491-21.853,14.902-32.741,22.27
					c117.026,133.224,217.535,267.742,189.812,489.62l30.417,3.803C1128.842,1600.362,1026.44,1453.974,911.752,1321.592z"/>
				<path fill="#487DAF" stroke="#487DAF" stroke-miterlimit="10" d="M1045.955,247.572
					c143.734-100.094,279.013-216.783,308.618-453.705l-30.418-3.799c-27.724,221.878-158.247,327.538-304.451,427.862
					C1028.442,227.75,1037.207,237.627,1045.955,247.572z"/>
			</g>
			<g>
				<path fill="#487DAF" stroke="#487DAF" stroke-miterlimit="10" d="M1274.047-123.099c2.294-7.143,4.446-14.438,6.441-21.902
					l-483.546-60.42c0.095,7.723,0.385,15.325,0.856,22.812L1274.047-123.099z"/>
				<path fill="#487DAF" stroke="#487DAF" stroke-miterlimit="10" d="M1235.482-37.095c4.089-6.913,8.008-13.984,11.744-21.239
					l-439.372-54.9c1.835,7.95,3.899,15.77,6.162,23.476L1235.482-37.095z"/>
				<path fill="#487DAF" stroke="#487DAF" stroke-miterlimit="10" d="M854.923,6.176l317.305,39.648
					c6.307-6.653,12.447-13.447,18.387-20.407L842.122-18.129C846.166-9.92,850.441-1.825,854.923,6.176z"/>
				<path fill="#487DAF" stroke="#487DAF" stroke-miterlimit="10" d="M1081.852,125.356c8.479-6.454,16.786-12.971,24.937-19.589
					L903.596,80.375c6.268,8.42,12.721,16.784,19.346,25.124L1081.852,125.356z"/>
				<path fill="#487DAF" stroke="#487DAF" stroke-miterlimit="10" d="M952.521,358.96c-9.311,6.412-18.519,12.821-27.59,19.259
					l87.892,10.982c-7.21-8.471-14.556-16.951-22.004-25.456L952.521,358.96z"/>
				<path fill="#487DAF" stroke="#487DAF" stroke-miterlimit="10" d="M848.369,436.771c-7.736,6.509-15.299,13.131-22.678,19.872
					l264.016,32.99c-5.491-8.351-11.197-16.628-17.09-24.841L848.369,436.771z"/>
				<path fill="#487DAF" stroke="#487DAF" stroke-miterlimit="10" d="M767.949,517.544c-5.443,6.749-10.71,13.655-15.785,20.733
					l388.727,48.572c-3.178-8.107-6.581-16.1-10.201-23.979L767.949,517.544z"/>
				<path fill="#487DAF" stroke="#487DAF" stroke-miterlimit="10" d="M714.537,601.694c-3.36,7.003-6.555,14.17-9.583,21.509
					l460.795,57.577c-1.13-7.858-2.462-15.59-4.001-23.206L714.537,601.694z"/>
				<path fill="#487DAF" stroke="#487DAF" stroke-miterlimit="10" d="M683.789,688.676c-1.74,7.211-3.325,14.587-4.777,22.109
					l490.336,61.269c0.438-7.648,0.721-15.187,0.812-22.604L683.789,688.676z"/>
				<path fill="#487DAF" stroke="#487DAF" stroke-miterlimit="10" d="M670.338,777.818c-0.506,7.65-0.825,15.165-0.98,22.583
					l487.29,60.889c1.672-7.229,3.217-14.591,4.606-22.131L670.338,777.818z"/>
				<path fill="#487DAF" stroke="#487DAF" stroke-miterlimit="10" d="M673.013,868.978c1.04,7.85,2.291,15.568,3.735,23.173
					l450.161,56.248c3.271-7.014,6.381-14.186,9.316-21.54L673.013,868.978z"/>
				<path fill="#487DAF" stroke="#487DAF" stroke-miterlimit="10" d="M696.698,962.76c3.062,8.095,6.343,16.069,9.845,23.937
					l368.226,46.011c5.335-6.763,10.475-13.685,15.433-20.778L696.698,962.76z"/>
				<path fill="#487DAF" stroke="#487DAF" stroke-miterlimit="10" d="M746.486,1059.806c5.376,8.345,10.975,16.601,16.762,24.801
					l232.464,29.047c7.623-6.523,15.079-13.148,22.35-19.912L746.486,1059.806z"/>
				<path fill="#487DAF" stroke="#487DAF" stroke-miterlimit="10" d="M822.287,1160.101c7.153,8.469,14.451,16.94,21.859,25.438
					l48.322,6.039c9.271-6.414,18.429-12.829,27.445-19.279L822.287,1160.101z"/>
				<path fill="#487DAF" stroke="#487DAF" stroke-miterlimit="10" d="M932.071,1468.995c-6.365-8.423-12.919-16.803-19.63-25.158
					l-149.727-18.709c-8.561,6.447-16.972,12.958-25.219,19.553L932.071,1468.995z"/>
				<path fill="#487DAF" stroke="#487DAF" stroke-miterlimit="10" d="M652.343,1524.866l342.531,42.801
					c-4.161-8.221-8.548-16.332-13.139-24.35L671.077,1504.5C664.647,1511.14,658.399,1517.924,652.343,1524.866z"/>
				<path fill="#487DAF" stroke="#487DAF" stroke-miterlimit="10" d="M1030.446,1662.935c-1.938-7.958-4.096-15.798-6.461-23.514
					l-417.513-52.169c-4.191,6.896-8.212,13.963-12.048,21.198L1030.446,1662.935z"/>
				<path fill="#487DAF" stroke="#487DAF" stroke-miterlimit="10" d="M1042.391,1755.251c-0.171-7.734-0.532-15.348-1.072-22.838
					l-474.526-59.294c-2.373,7.124-4.592,14.417-6.658,21.871L1042.391,1755.251z"/>
			</g>
			<path fill="#487DAF" stroke="#487DAF" stroke-miterlimit="10" d="M515.26,1764.313l-30.415-3.8
				c33.503-268.139,202.356-382.277,365.655-492.653c162.334-109.729,315.659-213.369,345.989-456.085
				c30.325-242.716-92.782-380.901-223.123-527.197C842.249,137.415,706.672-14.764,740.177-282.903l30.417,3.8
				c-30.33,242.717,92.779,380.902,223.123,527.198c131.117,147.165,266.695,299.343,233.187,567.479
				c-33.503,268.14-202.355,382.278-365.652,492.654C698.917,1417.96,545.589,1521.599,515.26,1764.313z"/>
		</g>
	</g>
</g>
<g id="Layer_7">
</g>
<g id="Layer_4" display="none">
	
		<polyline display="inline" fill="none" stroke="#487DAF" stroke-width="40" stroke-linecap="square" stroke-miterlimit="10" points="
		476.535,72 60.44,792.5 476.535,1514 	"/>
	
		<polyline display="inline" fill="none" stroke="#487DAF" stroke-width="40" stroke-linecap="square" stroke-miterlimit="10" points="
		1336.203,71 1759.035,791.5 1336.203,1513 	"/>
</g>
<g id="Layer_6">
	<g>
		<polygon fill="#487DAF" points="417.958,1402 66.575,792.491 418.437,183 476.176,183 124.305,792.509 475.678,1402 		"/>
	</g>
	<g>
		<polygon fill="#487DAF" points="1405.107,1402 1347.152,1402 1705.052,791.509 1347.819,183 1405.794,183 1763.016,791.491 
			1755.604,804.141 		"/>
	</g>
</g>
</svg>
