<?xml version="1.0" standalone="no"?>
<!DOCTYPE svg PUBLIC "-//W3C//DTD SVG 20010904//EN"
 "http://www.w3.org/TR/2001/REC-SVG-20010904/DTD/svg10.dtd">
<svg version="1.0" xmlns="http://www.w3.org/2000/svg"
 width="512.000000pt" height="512.000000pt" viewBox="0 0 512.000000 512.000000"
 preserveAspectRatio="xMidYMid meet">
<metadata>
Created by potrace 1.11, written by Peter Selinger 2001-2013
</metadata>
<g transform="translate(0.000000,512.000000) scale(0.100000,-0.100000)"
fill="#000000" stroke="none">
<path d="M1252 4685 c-16 -27 -42 -72 -57 -99 -26 -46 -287 -498 -399 -691
-29 -49 -98 -169 -153 -265 -56 -96 -223 -386 -372 -644 l-271 -469 24 -41
c13 -23 33 -57 44 -76 38 -68 171 -298 191 -331 11 -19 28 -47 37 -64 9 -16
117 -203 239 -415 123 -212 233 -404 246 -427 13 -22 131 -227 263 -455 l239
-413 53 -1 c35 -1 52 2 47 9 -4 6 -1 7 8 1 19 -12 719 -12 712 0 -4 5 -1 6 8
0 20 -12 240 -13 232 -1 -4 6 -1 7 8 1 19 -12 719 -12 712 0 -4 5 -1 6 8 0 21
-13 240 -13 232 0 -5 8 -3 8 8 0 9 -7 102 -10 269 -10 l255 1 71 120 c71 120
179 308 529 915 300 520 414 717 489 845 38 66 85 147 103 180 19 33 47 83 63
111 l30 52 -216 373 c-119 206 -226 392 -239 414 -12 22 -132 229 -265 460
-134 231 -251 434 -260 450 -10 17 -50 86 -90 155 -40 69 -83 143 -95 165 -13
22 -44 76 -69 120 l-46 80 -1279 0 -1279 0 -30 -50z"/>
</g>
</svg>
